<svg width="1255" height="439" viewBox="0 0 1255 439" fill="none" xmlns="http://www.w3.org/2000/svg">
  <style>
    path, ellipse {
      fill: hsl(216deg 8% 12%);
      stroke: hsl(216deg 8% 12%);
    }

    @media (prefers-color-scheme: dark) {
      path, ellipse {
        fill: hsl(216deg 14% 93%);
        stroke: hsl(216deg 14% 93%);
      }
    }
  </style>
  <path d="M105.75 357L105.75 143.995" stroke="#1C1E21" stroke-width="32" stroke-linecap="round"/>
  <path d="M305.75 264.005L305.75 51" stroke="#1C1E21" stroke-width="32" stroke-linecap="round"/>
  <path d="M255.75 196.007V120" stroke="#1C1E21" stroke-width="32" stroke-linecap="round"/>
  <path d="M355.75 196.009V103.997" stroke="#1C1E21" stroke-width="32" stroke-linecap="round"/>
  <path d="M205.75 272V16" stroke="#1C1E21" stroke-width="32" stroke-linecap="round"/>
  <path d="M155.75 212.005V104" stroke="#1C1E21" stroke-width="32" stroke-linecap="round"/>
  <ellipse cx="61" cy="357" rx="61" ry="50" fill="#1C1E21"/>
  <path d="M410.737 223.727H450.35L488.493 295.766H490.126L528.269 223.727H567.882L506.87 331.866V391H471.749V331.866L410.737 223.727ZM616.949 393.45C604.262 393.45 593.29 390.755 584.034 385.364C574.831 379.919 567.726 372.351 562.716 362.658C557.707 352.912 555.202 341.613 555.202 328.763C555.202 315.804 557.707 304.478 562.716 294.786C567.726 285.039 574.831 277.47 584.034 272.08C593.29 266.634 604.262 263.912 616.949 263.912C629.636 263.912 640.581 266.634 649.783 272.08C659.039 277.47 666.173 285.039 671.182 294.786C676.191 304.478 678.696 315.804 678.696 328.763C678.696 341.613 676.191 352.912 671.182 362.658C666.173 372.351 659.039 379.919 649.783 385.364C640.581 390.755 629.636 393.45 616.949 393.45ZM617.112 366.497C622.884 366.497 627.703 364.864 631.569 361.597C635.435 358.275 638.348 353.756 640.308 348.038C642.323 342.321 643.33 335.814 643.33 328.518C643.33 321.221 642.323 314.714 640.308 308.997C638.348 303.28 635.435 298.76 631.569 295.439C627.703 292.117 622.884 290.457 617.112 290.457C611.286 290.457 606.386 292.117 602.411 295.439C598.49 298.76 595.523 303.28 593.508 308.997C591.548 314.714 590.568 321.221 590.568 328.518C590.568 335.814 591.548 342.321 593.508 348.038C595.523 353.756 598.49 358.275 602.411 361.597C606.386 364.864 611.286 366.497 617.112 366.497ZM781.771 337.584V265.545H816.566V391H783.16V368.212H781.853C779.022 375.563 774.312 381.471 767.723 385.936C761.189 390.401 753.212 392.634 743.792 392.634C735.407 392.634 728.029 390.728 721.658 386.916C715.287 383.105 710.305 377.687 706.711 370.663C703.172 363.638 701.375 355.226 701.32 345.425V265.545H736.115V339.217C736.169 346.623 738.156 352.476 742.077 356.778C745.997 361.079 751.252 363.23 757.84 363.23C762.033 363.23 765.954 362.277 769.602 360.371C773.25 358.411 776.19 355.525 778.423 351.714C780.71 347.902 781.826 343.192 781.771 337.584ZM827 252.886V223.727H964.379V252.886H913.168V391H878.211V252.886H827ZM986.35 391V265.545H1021.14V391H986.35ZM1003.83 249.374C998.656 249.374 994.218 247.658 990.515 244.228C986.867 240.743 985.043 236.578 985.043 231.732C985.043 226.94 986.867 222.829 990.515 219.398C994.218 215.914 998.656 214.171 1003.83 214.171C1009 214.171 1013.41 215.914 1017.06 219.398C1020.76 222.829 1022.61 226.94 1022.61 231.732C1022.61 236.578 1020.76 240.743 1017.06 244.228C1013.41 247.658 1009 249.374 1003.83 249.374ZM1116.48 265.545V291.682H1039.05V265.545H1116.48ZM1056.78 391V256.479C1056.78 247.386 1058.54 239.845 1062.08 233.855C1065.68 227.866 1070.58 223.373 1076.79 220.379C1082.99 217.384 1090.04 215.886 1097.94 215.886C1103.28 215.886 1108.15 216.295 1112.56 217.112C1117.02 217.928 1120.35 218.663 1122.52 219.317L1116.32 245.453C1114.96 245.018 1113.27 244.609 1111.25 244.228C1109.29 243.847 1107.28 243.656 1105.21 243.656C1100.09 243.656 1096.52 244.854 1094.51 247.25C1092.49 249.591 1091.49 252.886 1091.49 257.133V391H1056.78ZM1159.22 438.045C1154.81 438.045 1150.67 437.692 1146.8 436.984C1142.99 436.33 1139.83 435.486 1137.33 434.452L1145.17 408.479C1149.25 409.731 1152.93 410.412 1156.2 410.521C1159.52 410.629 1162.38 409.867 1164.77 408.234C1167.22 406.6 1169.21 403.823 1170.73 399.903L1172.78 394.594L1127.77 265.545H1164.36L1190.34 357.676H1191.64L1217.86 265.545H1254.7L1205.94 404.558C1203.59 411.31 1200.41 417.191 1196.38 422.2C1192.41 427.264 1187.37 431.157 1181.27 433.88C1175.17 436.657 1167.82 438.045 1159.22 438.045Z" fill="#1C1E21"/>
</svg>
