<svg width="1206" height="439" viewBox="0 0 1206 439" fill="none" xmlns="http://www.w3.org/2000/svg">
<path d="M105.75 357L105.75 143.995" stroke="black" stroke-width="32" stroke-linecap="round"/>
<path d="M305.75 264.005L305.75 51" stroke="black" stroke-width="32" stroke-linecap="round"/>
<path d="M255.75 196.007V120" stroke="black" stroke-width="32" stroke-linecap="round"/>
<path d="M355.75 196.009V103.997" stroke="black" stroke-width="32" stroke-linecap="round"/>
<path d="M205.75 272V16" stroke="black" stroke-width="32" stroke-linecap="round"/>
<path d="M155.75 212.005V104" stroke="black" stroke-width="32" stroke-linecap="round"/>
<ellipse cx="61" cy="357" rx="61" ry="50" fill="black"/>
<path d="M411.881 223.727H435.077L481.469 301.81H483.429L529.821 223.727H553.017L492.577 322.065V391H472.321V322.065L411.881 223.727ZM609.823 393.614C598.497 393.614 588.56 390.918 580.011 385.528C571.517 380.137 564.874 372.596 560.082 362.903C555.345 353.211 552.976 341.885 552.976 328.926C552.976 315.858 555.345 304.451 560.082 294.704C564.874 284.957 571.517 277.388 580.011 271.998C588.56 266.607 598.497 263.912 609.823 263.912C621.149 263.912 631.059 266.607 639.553 271.998C648.102 277.388 654.745 284.957 659.482 294.704C664.274 304.451 666.669 315.858 666.669 328.926C666.669 341.885 664.274 353.211 659.482 362.903C654.745 372.596 648.102 380.137 639.553 385.528C631.059 390.918 621.149 393.614 609.823 393.614ZM609.823 376.298C618.426 376.298 625.505 374.093 631.059 369.683C636.613 365.272 640.724 359.473 643.392 352.286C646.06 345.098 647.394 337.312 647.394 328.926C647.394 320.541 646.06 312.727 643.392 305.485C640.724 298.243 636.613 292.39 631.059 287.925C625.505 283.46 618.426 281.227 609.823 281.227C601.22 281.227 594.141 283.46 588.587 287.925C583.033 292.39 578.922 298.243 576.254 305.485C573.586 312.727 572.252 320.541 572.252 328.926C572.252 337.312 573.586 345.098 576.254 352.286C578.922 359.473 583.033 365.272 588.587 369.683C594.141 374.093 601.22 376.298 609.823 376.298ZM775.156 339.707V265.545H794.431V391H775.156V369.764H773.849C770.909 376.135 766.335 381.553 760.127 386.018C753.92 390.428 746.079 392.634 736.605 392.634C728.764 392.634 721.794 390.918 715.695 387.488C709.597 384.003 704.805 378.776 701.32 371.806C697.836 364.782 696.093 355.934 696.093 345.261V265.545H715.369V343.955C715.369 353.102 717.928 360.399 723.046 365.844C728.219 371.289 734.808 374.011 742.812 374.011C747.604 374.011 752.477 372.786 757.432 370.336C762.441 367.886 766.634 364.129 770.01 359.065C773.441 354.001 775.156 347.548 775.156 339.707ZM811.522 241.696V223.727H936.977V241.696H884.377V391H864.121V241.696H811.522ZM965.624 391V265.545H984.9V391H965.624ZM975.426 244.636C971.669 244.636 968.429 243.357 965.706 240.798C963.038 238.238 961.704 235.162 961.704 231.568C961.704 227.974 963.038 224.898 965.706 222.339C968.429 219.78 971.669 218.5 975.426 218.5C979.183 218.5 982.395 219.78 985.063 222.339C987.786 224.898 989.147 227.974 989.147 231.568C989.147 235.162 987.786 238.238 985.063 240.798C982.395 243.357 979.183 244.636 975.426 244.636ZM1076.07 265.545V281.881H1008.44V265.545H1076.07ZM1028.7 391V248.23C1028.7 241.043 1030.39 235.053 1033.76 230.261C1037.14 225.47 1041.52 221.876 1046.91 219.48C1052.3 217.084 1057.99 215.886 1063.98 215.886C1068.72 215.886 1072.59 216.268 1075.58 217.03C1078.58 217.792 1080.81 218.5 1082.28 219.153L1076.72 235.815C1075.74 235.489 1074.38 235.08 1072.64 234.59C1070.95 234.1 1068.72 233.855 1065.94 233.855C1059.57 233.855 1054.97 235.461 1052.14 238.674C1049.36 241.887 1047.97 246.597 1047.97 252.804V391H1028.7ZM1115.5 438.045C1112.23 438.045 1109.32 437.773 1106.76 437.229C1104.2 436.739 1102.43 436.249 1101.45 435.759L1106.35 418.77C1111.04 419.968 1115.17 420.403 1118.77 420.077C1122.36 419.75 1125.55 418.144 1128.32 415.258C1131.15 412.426 1133.74 407.825 1136.08 401.455L1139.68 391.653L1093.28 265.545H1114.19L1148.82 365.517H1150.13L1184.76 265.545H1205.67L1152.42 409.295C1150.02 415.775 1147.05 421.138 1143.52 425.386C1139.98 429.687 1135.86 432.873 1131.18 434.942C1126.55 437.011 1121.33 438.045 1115.5 438.045Z" fill="black"/>
</svg>
